<svg xmlns="http://www.w3.org/2000/svg" width="706" height="860" viewBox="0 0 706 860">
  <rect x="1" y="1" width="704" height="858" rx="42" fill="#c2d8e2"/>
  <rect x="108" y="38" width="562" height="92" rx="34" fill="#eeeeee"/>
  <rect x="170" y="68" width="366" height="10" rx="5" fill="#cecece"/>
  <rect x="210" y="90" width="286" height="10" rx="5" fill="#cecece"/>

  <rect x="36" y="142" width="46" height="46" rx="12" fill="#f7c600"/>
  <path d="M50 152 H56 V178 H50 Z M56 165 L68 152 H74 L62 165 L74 178 H68 Z" fill="#000"/>

  <rect x="28" y="224" width="650" height="634" rx="36" fill="#eeeeee"/>

  <rect x="68" y="268" width="348" height="14" rx="7" fill="#cecece"/>
  <rect x="68" y="308" width="444" height="12" rx="6" fill="#cecece"/>

  <rect x="68" y="354" width="570" height="10" rx="5" fill="#bdbdbd"/>

  <line x1="68" y1="400" x2="638" y2="400" stroke="#d2d2d2" stroke-width="2"/>
  <rect x="74" y="416" width="140" height="12" rx="5" fill="#cecece"/>
  <rect x="278" y="416" width="170" height="12" rx="5" fill="#cecece"/>
  <rect x="554" y="416" width="78" height="12" rx="5" fill="#cecece"/>

  <line x1="68" y1="468" x2="638" y2="468" stroke="#d2d2d2" stroke-width="2"/>
  <rect x="74" y="484" width="140" height="12" rx="5" fill="#cecece"/>
  <rect x="278" y="484" width="170" height="12" rx="5" fill="#cecece"/>
  <rect x="554" y="484" width="78" height="12" rx="5" fill="#cecece"/>

  <line x1="68" y1="536" x2="638" y2="536" stroke="#d2d2d2" stroke-width="2"/>
  <rect x="74" y="552" width="140" height="12" rx="5" fill="#cecece"/>
  <rect x="278" y="552" width="170" height="12" rx="5" fill="#cecece"/>
  <rect x="554" y="552" width="78" height="12" rx="5" fill="#cecece"/>

  <rect x="68" y="612" width="262" height="14" rx="7" fill="#cecece"/>

  <rect x="68" y="670" width="496" height="12" rx="6" fill="#cecece"/>
  <rect x="68" y="704" width="442" height="12" rx="6" fill="#cecece"/>
  <rect x="68" y="738" width="486" height="12" rx="6" fill="#cecece"/>
  <rect x="68" y="772" width="420" height="12" rx="6" fill="#cecece"/>
</svg>
